<?xml version="1.0" encoding="iso-8859-1"?>
<!-- Generator: Adobe Illustrator 15.0.0, SVG Export Plug-In . SVG Version: 6.00 Build 0)  -->
<!DOCTYPE svg PUBLIC "-//W3C//DTD SVG 1.1//EN" "http://www.w3.org/Graphics/SVG/1.1/DTD/svg11.dtd">
<svg version="1.1" id="&#x30EC;&#x30A4;&#x30E4;&#x30FC;_1"
	 xmlns="http://www.w3.org/2000/svg" xmlns:xlink="http://www.w3.org/1999/xlink" x="0px" y="0px" width="141.732px"
	 height="141.732px" viewBox="0 0 141.732 141.732" style="enable-background:new 0 0 141.732 141.732;" xml:space="preserve">
<path style="fill-rule:evenodd;clip-rule:evenodd;fill:#7C6C54;" d="M12.002,93.987c0,18.437,26.353,33.383,58.864,33.383
	c32.511,0,58.864-14.946,58.864-33.383c0-7.253-4.081-13.967-11.013-19.442c0,0-9.329-6.955-12.089-3.196
	c-1.391,2.244,3.207,5.273,7.039,9.094c3.046,3.218,4.753,6.835,4.753,10.653c0,13.488-21.291,24.423-47.555,24.423
	c-26.264,0-47.555-10.935-47.555-24.423c0-3.818,1.708-7.436,4.753-10.653c3.832-3.821,8.43-6.851,7.039-9.094
	c-2.76-3.759-12.089,3.196-12.089,3.196C16.083,80.021,12.002,86.734,12.002,93.987z M50.919,15.711c0,0-13.15,12.442-12.348,26.797
	c0.003,0.064-0.077,4.998,3.332,12.358l1.166,2.319c4.109,10.504,3.213,18.065-4.334,34.147c-0.739,2.363-0.572,5.033,3.313,2.065
	c0,0,13-12.147,12.247-26.294c-0.002-0.064,0.092-4.962-3.292-12.301l-1.167-2.321c-4.115-10.565-3.212-18.217,4.44-34.644
	C55.031,15.412,54.867,12.657,50.919,15.711z M73.826,15.711c0,0-13.15,12.442-12.351,26.797c0.005,0.064-0.075,4.998,3.332,12.358
	l1.169,2.319c4.109,10.504,3.212,18.065-4.337,34.147c-0.736,2.363-0.569,5.033,3.315,2.065c0,0,13-12.147,12.247-26.294
	c-0.002-0.064,0.092-4.962-3.296-12.301l-1.163-2.321c-4.115-10.565-3.215-18.217,4.438-34.644
	C77.936,15.412,77.774,12.657,73.826,15.711z M96.729,15.711c0,0-13.149,12.442-12.347,26.797c0.003,0.064-0.075,4.998,3.331,12.358
	l1.17,2.319c4.109,10.504,3.213,18.065-4.338,34.147c-0.738,2.363-0.568,5.033,3.316,2.065c0,0,13-12.147,12.247-26.294
	c-0.003-0.064,0.092-4.962-3.296-12.301l-1.166-2.321c-4.115-10.565-3.213-18.217,4.439-34.644
	C100.843,15.412,100.681,12.657,96.729,15.711z"/>
</svg>
